<svg width="34" height="32" viewBox="0 0 34 32" fill="none" xmlns="http://www.w3.org/2000/svg">
<path d="M22.0394 30.8952C21.8251 30.8203 20.942 30.572 20.188 30.3087C15.5467 28.8681 6.60788 23.6324 3.09361 20.3491C2.54554 19.8571 1.26767 18.5632 0.845346 17.7504C23.1083 19.469 0.304473 16.1127 0.338409 15.2168C0.436622 14.0739 0.915298 12.9705 1.69376 12.1253C2.24324 11.5586 4.05858 10.2298 4.09416 10.2132C6.09757 8.79678 13.071 13.8321 17 12C20.7434 10.2544 20.7359 1.97083 23.1083 1.25941C23.1612 1.27995 25.8314 0.517083 26.8848 0.553346C28.8107 0.622809 30.5002 1.72479 31.2749 3.38603L31.3418 3.52963C31.8082 4.62931 19.7459 18.0666 28.5055 16.969C38.2524 7.46904 30.4637 21.87 28.5055 26.4754C28.5055 26.4754 28.0372 27.7337 27.669 28.3575C27.1615 29.2994 26.3323 30.0357 25.3691 30.4849C24.2941 30.9862 23.1415 31.1288 22.0394 30.8952Z" fill="#1E2875"/>
</svg>
